<svg id="Layer_1" data-name="Layer 1" xmlns="http://www.w3.org/2000/svg" xmlns:xlink="http://www.w3.org/1999/xlink" viewBox="0 0 1600 357.31"><defs><style>.cls-1{fill:#020021;}.cls-2{fill:url(#linear-gradient);}</style><linearGradient id="linear-gradient" x1="95.58" y1="311.95" x2="262.97" y2="22.02" gradientUnits="userSpaceOnUse"><stop offset="0" stop-color="#281aaa"/><stop offset="1" stop-color="#5332fa"/></linearGradient></defs><path class="cls-1" d="M486.21,121.71a33.69,33.69,0,0,1-13.06,2.34,37.59,37.59,0,0,1-22.39-6.91q-9.69-6.9-14.73-19.77l-18.66,7.84A54.67,54.67,0,0,0,428.94,125a56,56,0,0,0,19,13.52,59.26,59.26,0,0,0,24.25,4.95q14,0,24.62-5.13a41.32,41.32,0,0,0,16.69-14.09,35.73,35.73,0,0,0,6.07-20.52q0-14-8.4-23.41t-25-14.45L462,58.2q-8.77-2.61-13.06-7.84a18.27,18.27,0,0,1-4.29-11.93,18,18,0,0,1,2.89-10.17,18.45,18.45,0,0,1,8.11-6.71,29.43,29.43,0,0,1,12.13-2.34,33.71,33.71,0,0,1,32.83,22.95l18.28-8a46.26,46.26,0,0,0-10.73-17.72,53.34,53.34,0,0,0-17.62-12A57.41,57.41,0,0,0,467.74,0a51.55,51.55,0,0,0-23.22,5,39.47,39.47,0,0,0-15.95,13.89,36.85,36.85,0,0,0-5.79,20.62A35.76,35.76,0,0,0,431,63q8.2,10,23.88,14.83L481,86q8.4,2.63,12.69,7.09T498,105.21a16.52,16.52,0,0,1-3.08,9.88A19.61,19.61,0,0,1,486.21,121.71Z"/><path class="cls-1" d="M552.42,108.19q0,16.23,8.77,25.18t24.62,9a48.52,48.52,0,0,0,5.6-.38q3.17-.37,5.78-.74v-18.1l-3.54.38q-1.87.18-3.36.18a20.8,20.8,0,0,1-9.7-2,11.77,11.77,0,0,1-5.41-5.59,21.06,21.06,0,0,1-1.68-8.86V59.32h23v-19h-23V17.16H552.42V25q0,7.08-3.91,11.19t-11,4.1h-2.8v19h17.72Z"/><path class="cls-1" d="M638.79,83q0-11.94,6.43-18.38t16.89-6.43h8.76V39h-6.15q-10.46,0-17.91,4.38a23.26,23.26,0,0,0-8.95,9.82V40.29H617.71V141.21h21.08Z"/><rect class="cls-1" x="685.24" y="40.29" width="21.08" height="100.92"/><rect class="cls-1" x="685.24" y="2.24" width="21.08" height="24.25"/><path class="cls-1" d="M752,81.7a27.77,27.77,0,0,1,2.79-12.87,19.74,19.74,0,0,1,7.93-8.3,25,25,0,0,1,23.32,0A19.8,19.8,0,0,1,794,68.74a27.61,27.61,0,0,1,2.79,13v59.51h20.9V76.11a39.58,39.58,0,0,0-4.85-19.78A35,35,0,0,0,799.4,42.9a39.58,39.58,0,0,0-19.78-4.85,36.1,36.1,0,0,0-19,5,27.6,27.6,0,0,0-9.52,9.54V40.29H730.94V141.21H752Z"/><path class="cls-1" d="M917.84,53.27a38.77,38.77,0,0,0-12-10.27,42.22,42.22,0,0,0-20.61-5A47.72,47.72,0,0,0,842.58,62.3a50.35,50.35,0,0,0-6.44,25.56,51,51,0,0,0,6.44,25.55,47.23,47.23,0,0,0,17.63,17.91,49,49,0,0,0,25.18,6.53,42.71,42.71,0,0,0,20.8-5,34.81,34.81,0,0,0,10.72-9.07v12.8a25.73,25.73,0,0,1-3.73,14.09,24.3,24.3,0,0,1-10.07,9,32.52,32.52,0,0,1-14.36,3.08q-10.28,0-17.26-4.66a24,24,0,0,1-9.61-11.76l-19.4,8a40.19,40.19,0,0,0,10.08,14.65,48.52,48.52,0,0,0,16,9.79,56.83,56.83,0,0,0,20.33,3.54q14.37,0,25.37-6a44,44,0,0,0,23.5-39.74V40.29h-20Zm-4.75,50.16a29.3,29.3,0,0,1-10.35,10.82,27.91,27.91,0,0,1-14.93,4,29.16,29.16,0,0,1-15.29-4A28.55,28.55,0,0,1,862,103.34,31,31,0,0,1,858.15,88,31.25,31.25,0,0,1,862,72.47a28.8,28.8,0,0,1,10.54-10.82,29.25,29.25,0,0,1,15.29-4,27.65,27.65,0,0,1,14.74,4A29.89,29.89,0,0,1,913,72.56,30.74,30.74,0,0,1,916.91,88,30.82,30.82,0,0,1,913.09,103.43Z"/><polygon class="cls-1" points="1034.8 121.99 982.11 121.99 1034.62 57.45 1034.62 40.29 956.08 40.29 956.08 59.32 1006.6 59.32 953.29 123.86 953.29 141.21 1034.8 141.21 1034.8 121.99"/><polygon class="cls-1" points="506.35 177.3 411.22 177.3 411.22 196.89 448.15 196.89 448.15 316.27 469.98 316.27 469.98 196.89 506.35 196.89 506.35 177.3"/><path class="cls-1" d="M588.8,227.76A43.56,43.56,0,0,0,573.69,217a50.12,50.12,0,0,0-20.33-3.92A47.83,47.83,0,0,0,528,219.93a50,50,0,0,0-17.81,18.56q-6.63,11.74-6.62,27a55.6,55.6,0,0,0,6.52,27,49.23,49.23,0,0,0,18.19,19,51,51,0,0,0,26.77,7A53.45,53.45,0,0,0,574,315.25a45.81,45.81,0,0,0,14.92-9,36.19,36.19,0,0,0,9.24-12.78L581,285.12a30.17,30.17,0,0,1-10.17,10.63,28.33,28.33,0,0,1-15.57,4.11,29.88,29.88,0,0,1-16-4.29,28.72,28.72,0,0,1-10.82-11.94,29.88,29.88,0,0,1-3-11.75h75.08a28.32,28.32,0,0,0,.75-4.85c.12-1.74.19-3.42.19-5a52.91,52.91,0,0,0-3.27-18.65A47.87,47.87,0,0,0,588.8,227.76ZM526,255.09a31.87,31.87,0,0,1,2.39-8.12A27.27,27.27,0,0,1,538.44,235a27,27,0,0,1,14.92-4.2,25.15,25.15,0,0,1,24,15.57,24.29,24.29,0,0,1,1.88,8.68Z"/><path class="cls-1" d="M654.55,236.9a28.72,28.72,0,0,1,15.39-4.2,27.7,27.7,0,0,1,15.95,4.76,27.36,27.36,0,0,1,10.17,12.59l18.46-8.58a39.5,39.5,0,0,0-9.79-14.73,48.74,48.74,0,0,0-15.57-10,50.5,50.5,0,0,0-19.22-3.64,52.61,52.61,0,0,0-26.86,6.81,49.18,49.18,0,0,0-18.47,18.74,57.12,57.12,0,0,0,.1,53.91,50.46,50.46,0,0,0,45.23,25.93,49.7,49.7,0,0,0,35-13.9,39,39,0,0,0,9.6-14.45l-18.46-8.77a28.75,28.75,0,0,1-10.17,12.78,27.16,27.16,0,0,1-15.95,4.75,28.18,28.18,0,0,1-15.39-4.29,29.85,29.85,0,0,1-10.72-11.84,39.13,39.13,0,0,1,0-34.14A29.33,29.33,0,0,1,654.55,236.9Z"/><path class="cls-1" d="M803.5,218a39.51,39.51,0,0,0-19.77-4.85,36.19,36.19,0,0,0-19,4.94,27.47,27.47,0,0,0-8.58,8.07V175.07H735v141.2h21.08v-59.5A26.93,26.93,0,0,1,759,243.9a20.25,20.25,0,0,1,8-8.3,24.33,24.33,0,0,1,23,0,20.6,20.6,0,0,1,7.93,8.2,26.93,26.93,0,0,1,2.89,13v59.5h20.89V251a39.15,39.15,0,0,0-4.85-19.59A34.87,34.87,0,0,0,803.5,218Z"/><path class="cls-1" d="M912.81,218A39.51,39.51,0,0,0,893,213.12a36.19,36.19,0,0,0-19,4.94,27.49,27.49,0,0,0-9.51,9.54V215.36H844.35V316.27h21.08v-59.5a27.65,27.65,0,0,1,2.8-12.87,19.6,19.6,0,0,1,7.92-8.3,24.89,24.89,0,0,1,23.32,0,19.84,19.84,0,0,1,7.93,8.2,27.65,27.65,0,0,1,2.8,13v59.5h20.89v-65.1a39.51,39.51,0,0,0-4.85-19.77A34.87,34.87,0,0,0,912.81,218Z"/><path class="cls-1" d="M1029.11,219.93a55.82,55.82,0,0,0-53.44,0,52.9,52.9,0,0,0,.09,91.68,54.79,54.79,0,0,0,53.07.09,51.44,51.44,0,0,0,19-18.74,56,56,0,0,0,.09-54.38A51.07,51.07,0,0,0,1029.11,219.93Zm0,62.86a30.3,30.3,0,0,1-10.91,11.84,31.28,31.28,0,0,1-31.62,0,30.08,30.08,0,0,1-11-11.84,35.78,35.78,0,0,1-4-17.07,35.19,35.19,0,0,1,4-17,30.4,30.4,0,0,1,11-11.76,31.28,31.28,0,0,1,31.62,0,30.63,30.63,0,0,1,10.91,11.76,35.19,35.19,0,0,1,4,17A35.78,35.78,0,0,1,1029.11,282.79Z"/><rect class="cls-1" x="1075.47" y="175.07" width="21.08" height="141.21"/><path class="cls-1" d="M1196.62,219.93a55.82,55.82,0,0,0-53.44,0,52.9,52.9,0,0,0,.09,91.68,54.79,54.79,0,0,0,53.07.09,51.44,51.44,0,0,0,19-18.74,56,56,0,0,0,.09-54.38A51.07,51.07,0,0,0,1196.62,219.93Zm0,62.86a30.37,30.37,0,0,1-10.91,11.84,31.28,31.28,0,0,1-31.62,0,30.17,30.17,0,0,1-11-11.84,35.9,35.9,0,0,1-4-17.07,35.3,35.3,0,0,1,4-17,30.5,30.5,0,0,1,11-11.76,31.28,31.28,0,0,1,31.62,0,30.7,30.7,0,0,1,10.91,11.76,35.3,35.3,0,0,1,4,17A35.9,35.9,0,0,1,1196.62,282.79Z"/><path class="cls-1" d="M1320.57,228.34a38.78,38.78,0,0,0-12-10.28,42.33,42.33,0,0,0-20.61-4.94,47.72,47.72,0,0,0-42.62,24.25,50.33,50.33,0,0,0-6.44,25.55,51,51,0,0,0,6.44,25.56,47.35,47.35,0,0,0,17.62,17.91,49.11,49.11,0,0,0,25.19,6.52,42.64,42.64,0,0,0,20.79-5,34.73,34.73,0,0,0,10.73-9.07v12.8a25.68,25.68,0,0,1-3.73,14.08,24.32,24.32,0,0,1-10.07,9,32.53,32.53,0,0,1-14.37,3.07q-10.26,0-17.25-4.66a24,24,0,0,1-9.61-11.75l-19.4,8A40.15,40.15,0,0,0,1255.29,344a48.54,48.54,0,0,0,16,9.8,56.79,56.79,0,0,0,20.33,3.54q14.35,0,25.37-6a44,44,0,0,0,23.5-39.73V215.36h-20Zm-4.75,50.16a29.25,29.25,0,0,1-10.36,10.82,27.94,27.94,0,0,1-14.92,4,29.25,29.25,0,0,1-15.29-4,28.55,28.55,0,0,1-10.54-10.91,33,33,0,0,1,0-30.88,28.78,28.78,0,0,1,10.54-10.81,29.16,29.16,0,0,1,15.29-4,27.57,27.57,0,0,1,14.74,4,29.81,29.81,0,0,1,10.44,10.91,32.72,32.72,0,0,1,.1,30.87Z"/><rect class="cls-1" x="1365.15" y="177.3" width="21.08" height="24.25"/><rect class="cls-1" x="1365.15" y="215.36" width="21.08" height="100.92"/><path class="cls-1" d="M1492,227.76A43.65,43.65,0,0,0,1476.89,217a50.12,50.12,0,0,0-20.33-3.92,47.81,47.81,0,0,0-25.37,6.81,50.11,50.11,0,0,0-17.82,18.56q-6.61,11.74-6.62,27a55.6,55.6,0,0,0,6.53,27,49.08,49.08,0,0,0,18.19,19,51,51,0,0,0,26.77,7,53.49,53.49,0,0,0,18.93-3.26,45.92,45.92,0,0,0,14.92-9,36.16,36.16,0,0,0,9.23-12.78l-17.16-8.39A30.15,30.15,0,0,1,1474,295.75a28.36,28.36,0,0,1-15.58,4.11,29.9,29.9,0,0,1-16-4.29,28.78,28.78,0,0,1-10.82-11.94,30.05,30.05,0,0,1-3-11.75h75.09a29.34,29.34,0,0,0,.75-4.85q.18-2.61.18-5a53.13,53.13,0,0,0-3.26-18.65A48,48,0,0,0,1492,227.76Zm-62.83,27.33a31.87,31.87,0,0,1,2.39-8.12,26.52,26.52,0,0,1,25-16.13,25.15,25.15,0,0,1,24,15.57,24.07,24.07,0,0,1,1.87,8.68Z"/><path class="cls-1" d="M1574.07,259.19l-16.41-4.85a43.1,43.1,0,0,1-6.16-2.33,13.22,13.22,0,0,1-4.85-3.73,9.12,9.12,0,0,1-1.86-5.88,10.31,10.31,0,0,1,4.1-8.48q4.09-3.27,11-3.27a25.49,25.49,0,0,1,14.46,4.29,25,25,0,0,1,9.42,11.57l16.23-7.65a36.84,36.84,0,0,0-15.3-18.93,45.23,45.23,0,0,0-24.62-6.81,44.13,44.13,0,0,0-18.47,3.73,30.5,30.5,0,0,0-12.87,10.54,27.53,27.53,0,0,0-4.66,16,26.33,26.33,0,0,0,6.44,17.62q6.43,7.56,19.49,11.29l15.85,4.48a29.81,29.81,0,0,1,6.25,2.24,16.09,16.09,0,0,1,5.13,3.82,8.84,8.84,0,0,1,2,6.06,10.66,10.66,0,0,1-4.66,9.14q-4.67,3.36-12.12,3.36a27.11,27.11,0,0,1-16-5,34.29,34.29,0,0,1-11.29-13.61L1519,290.34a40.43,40.43,0,0,0,16.33,20.52q11.66,7.65,27.14,7.65a47,47,0,0,0,19.58-3.82,31.49,31.49,0,0,0,13.15-10.64,26.82,26.82,0,0,0,4.76-15.76,26.19,26.19,0,0,0-6.72-18Q1586.57,262.73,1574.07,259.19Z"/><path class="cls-2" d="M9.55,72.55,89.69,32.48l22.6-11.3a150.11,150.11,0,0,1,134.14,0L358.77,77.33l-79.91,40L183.29,69.5a8.75,8.75,0,0,0-7.82,15.65L349,171.91l-70.32,35.2Zm70.11,54.62-69.93,35,173.56,86.78a8.75,8.75,0,0,1-7.82,15.66L79.91,216.81,0,256.76l112.29,56.15a150,150,0,0,0,134.14,0l22.65-11.3,79.72-39.87Z"/></svg>