<svg id="Layer_1" data-name="Layer 1" xmlns="http://www.w3.org/2000/svg" xmlns:xlink="http://www.w3.org/1999/xlink" viewBox="0 0 396.42 357.31"><defs><style>.cls-1{fill:url(#linear-gradient);}</style><linearGradient id="linear-gradient" x1="105.61" y1="338.76" x2="290.57" y2="18.41" gradientUnits="userSpaceOnUse"><stop offset="0" stop-color="#281aaa"/><stop offset="1" stop-color="#5332fa"/></linearGradient></defs><path class="cls-1" d="M10.55,74.24,99.11,30l25-12.49a165.8,165.8,0,0,1,148.21,0l124.13,62-88.29,44.15-105.6-52.8a9.67,9.67,0,0,0-8.64,17.3L385.62,184l-77.7,38.9ZM88,134.59,10.75,173.25l191.78,95.89a9.66,9.66,0,1,1-8.64,17.29L88.3,233.64,0,277.79l124.08,62a165.8,165.8,0,0,0,148.21,0l25-12.49,88.09-44Z"/></svg>